<svg width="48" height="48" viewBox="0 0 48 48" fill="none" xmlns="http://www.w3.org/2000/svg">
  <rect width="48" height="48" rx="14" fill="url(#bg)"/>
  <path d="M15 19.8C15 17.15 17.15 15 19.8 15H28.2C30.85 15 33 17.15 33 19.8V28.2C33 30.85 30.85 33 28.2 33H19.8C17.15 33 15 30.85 15 28.2V19.8Z" fill="white" fill-opacity="0.18"/>
  <path d="M18.4 22.7H29.6M18.4 27.3H25.2" stroke="white" stroke-width="2" stroke-linecap="round"/>
  <path d="M28.1 28.4L30.05 30.35L34 25.9" stroke="white" stroke-width="2.4" stroke-linecap="round" stroke-linejoin="round"/>
  <path d="M13.5 24H10.8M37.2 24H34.5M24 13.5V10.8M24 37.2V34.5" stroke="white" stroke-opacity="0.7" stroke-width="2" stroke-linecap="round"/>
  <circle cx="15" cy="15" r="2.4" fill="#BFDBFE"/>
  <circle cx="33" cy="15" r="2.4" fill="#A7F3D0"/>
  <path d="M17.1 15H30.9" stroke="white" stroke-opacity="0.55" stroke-width="1.5" stroke-linecap="round" stroke-dasharray="2.2 2.2"/>
  <defs>
    <linearGradient id="bg" x1="6" y1="5" x2="43" y2="43" gradientUnits="userSpaceOnUse">
      <stop stop-color="#2563EB"/>
      <stop offset="0.55" stop-color="#0EA5E9"/>
      <stop offset="1" stop-color="#06B6D4"/>
    </linearGradient>
  </defs>
</svg>
